<?xml version="1.0" encoding="UTF-8" standalone="no"?>
<!-- Created with Inkscape (http://www.inkscape.org/) -->

<svg
   version="1.1"
   id="svg3157"
   width="900"
   height="550.66669"
   viewBox="0 0 900 550.66669"
   sodipodi:docname="b4a3613a1416de3bb5a1cb109a049b3c.svg"
   inkscape:version="1.2.1 (9c6d41e410, 2022-07-14)"
   xmlns:inkscape="http://www.inkscape.org/namespaces/inkscape"
   xmlns:sodipodi="http://sodipodi.sourceforge.net/DTD/sodipodi-0.dtd"
   xmlns="http://www.w3.org/2000/svg"
   xmlns:svg="http://www.w3.org/2000/svg">
  <defs
     id="defs3161" />
  <sodipodi:namedview
     id="namedview3159"
     pagecolor="#ffffff"
     bordercolor="#000000"
     borderopacity="0.25"
     inkscape:showpageshadow="2"
     inkscape:pageopacity="0.0"
     inkscape:pagecheckerboard="0"
     inkscape:deskcolor="#d1d1d1"
     showgrid="false"
     inkscape:zoom="1.37"
     inkscape:cx="637.9562"
     inkscape:cy="258.39416"
     inkscape:window-width="1920"
     inkscape:window-height="1017"
     inkscape:window-x="-8"
     inkscape:window-y="-8"
     inkscape:window-maximized="1"
     inkscape:current-layer="g3163" />
  <g
     inkscape:groupmode="layer"
     inkscape:label="Image"
     id="g3163">
    <path
       style="fill:#008000;stroke:#ffffff"
       d="M 213.90461,204.44624 Z"
       id="path3256" />
    <path
       style="fill:#000000;fill-opacity:1;stroke:#4f4f4f;stroke-width:2.1;stroke-dasharray:none;stroke-opacity:1"
       d="m 187.71221,165.8852 10.9135,23.28214 16.73403,25.46483 c 0,0 3.63784,8.00324 20.37187,27.64754 16.73404,19.6443 44.38157,48.0194 44.38157,48.0194 l 39.2886,32.01293 32.7405,24.0097 8.7308,3.63783 c 0,0 -6.8377,2.91816 -2.1827,0.72757 12.36864,-5.82053 -8.7308,-20.37185 -8.7308,-20.37185 0,0 -36.15506,-31.51759 -23.28213,-18.91675 34.42136,33.69379 -56.02263,-55.29507 -56.02263,-55.29507 L 245.91755,217.54244 C 236.32678,202.59212 224.81811,183.3468 224.81811,183.3468 l 24.0097,-8.7308 c 0,0 -4.3654,2.1827 10.9135,-2.91026 15.2789,-5.09297 34.19564,-10.9135 34.19564,-10.9135 l 25.46483,-6.5481 37.1059,-5.82054 34.9232,-5.82053 101.85935,-5.82054 70.45734,1.53823 131.07863,13.74068 c 0,0 -17.46161,-0.72757 6.54809,0.72756 24.0097,1.45514 59.66048,8.7308 59.66048,8.7308 l 28.3751,4.3654 15.2789,3.63784 3.63783,-3.63784 -45.8367,-13.82376 -36.37834,-9.45837 -74.93937,-15.2789 -42.19886,-5.09297 -53.11237,-5.09297 -72.02911,-2.91026 -60.38803,2.91026 -48.74697,5.09297 -33.46807,3.63783 -64.02587,12.36864 z"
       id="path3267"
       sodipodi:nodetypes="cccsccccscscsccscccccccsccccccccccccccc" />
    <path
       style="fill:#dbbd96;fill-opacity:1;stroke:#000000;stroke-width:13.0001;stroke-dasharray:none;stroke-opacity:1"
       id="path4233"
       sodipodi:type="arc"
       sodipodi:cx="534.76154"
       sodipodi:cy="220.8165"
       sodipodi:rx="99.826378"
       sodipodi:ry="94.369637"
       sodipodi:start="6.2374775"
       sodipodi:end="6.215143"
       sodipodi:arc-type="slice"
       d="m 634.48365,216.50457 a 99.826378,94.369637 0 0 1 -94.60412,98.55746 99.826378,94.369637 0 0 1 -104.78296,-88.88115 99.826378,94.369637 0 0 1 93.43399,-99.55001 99.826378,94.369637 0 0 1 105.82636,87.76945 l -99.59538,6.41618 z" />
    <ellipse
       style="fill:#683400;fill-opacity:1;stroke:#212121;stroke-width:7.1;stroke-dasharray:none;stroke-opacity:1"
       id="path5024"
       cx="536.94421"
       cy="220.8165"
       rx="37.1059"
       ry="31.649151" />
    <path
       style="fill:#683400;fill-opacity:1;stroke:none;stroke-width:12.5631;stroke-dasharray:none;stroke-opacity:1"
       d="m 505.53263,224.64546 -67.49971,-0.17264 1.5813,-23.59043 c 0,0 -8.94413,13.24238 5.92856,-13.70989 13.56093,-24.5751 21.92343,-33.8594 21.92343,-33.8594 l 5.14928,-10.27843 23.31158,-7.70726 39.44422,-4.32225 c 6.95885,0.14011 20.4658,2.73667 28.87978,0.81387 l 26.77279,6.03635 15.06073,16.45222 6.42142,8.85229 9.21025,16.27159 6.07287,22.99234 2.2584,14.64383 0.7528,8.478 -13.26582,0.0756 -45.45263,-1.53072 -7.19996,-1.11601 c -0.37545,0 13.94002,-25.5555 3.48644,-9.42137 -6.3566,9.81083 -23.38729,-23.46094 -23.38729,-23.46094 l -22.58402,0.77072 -10.5392,7.70728 -9.03361,11.56091 z"
       id="path20576"
       sodipodi:nodetypes="cccscccccccccccccccsccccc" />
    <path
       style="fill:#683400;fill-opacity:1;stroke:none;stroke-width:7.1;stroke-dasharray:none;stroke-opacity:1"
       id="path20858"
       sodipodi:type="arc"
       sodipodi:cx="533.3064"
       sodipodi:cy="200.44463"
       sodipodi:rx="34.923203"
       sodipodi:ry="19.280518"
       sodipodi:start="0.062378302"
       sodipodi:end="6.215143"
       sodipodi:arc-type="arc"
       d="m 568.16168,201.64653 a 34.923203,19.280518 0 0 1 -35.8949,18.07007 34.923203,19.280518 0 0 1 -33.88345,-19.21737 34.923203,19.280518 0 0 1 33.68575,-19.32302 34.923203,19.280518 0 0 1 36.07971,17.95754"
       sodipodi:open="true" />
    <path
       style="fill:#ffffff;fill-opacity:1;stroke:none;stroke-width:5.0382;stroke-dasharray:none;stroke-opacity:1"
       id="path26206"
       sodipodi:type="arc"
       sodipodi:cx="481.01373"
       sodipodi:cy="224.45256"
       sodipodi:rx="19.699858"
       sodipodi:ry="18.613138"
       sodipodi:start="0.062378302"
       sodipodi:end="6.215143"
       sodipodi:open="true"
       sodipodi:arc-type="arc"
       d="m 500.67528,225.61286 a 19.699858,18.613138 0 0 1 -20.24799,17.44459 19.699858,18.613138 0 0 1 -19.11334,-18.55218 19.699858,18.613138 0 0 1 19.00182,-18.65416 19.699858,18.613138 0 0 1 20.35224,17.33595" />
    <path
       style="fill:#ffffff;fill-opacity:1;stroke:none;stroke-width:7.14662;stroke-dasharray:none;stroke-opacity:1"
       id="path26226"
       sodipodi:type="arc"
       sodipodi:cx="587.97858"
       sodipodi:cy="246.19389"
       sodipodi:rx="14.389199"
       sodipodi:ry="13.224094"
       sodipodi:start="0"
       sodipodi:end="6.2649829"
       sodipodi:arc-type="slice"
       d="m 602.36778,246.19389 a 14.389199,13.224094 0 0 1 -14.32372,13.22396 14.389199,13.224094 0 0 1 -14.45409,-13.1036 14.389199,13.224094 0 0 1 14.19217,-13.34322 14.389199,13.224094 0 0 1 14.58325,12.98217 l -14.38681,0.24069 z" />
    <path
       style="fill:#ffffff;fill-opacity:1;stroke:none;stroke-width:3.92088;stroke-dasharray:none;stroke-opacity:1"
       id="path26228"
       sodipodi:type="arc"
       sodipodi:cx="595.24878"
       sodipodi:cy="-245.43802"
       sodipodi:rx="1.4048332"
       sodipodi:ry="3.3396924"
       sodipodi:start="0"
       sodipodi:end="6.2649829"
       sodipodi:arc-type="slice"
       d="m 596.65361,-245.43802 a 1.4048332,3.3396924 0 0 1 -1.39844,3.33966 1.4048332,3.3396924 0 0 1 -1.41117,-3.30926 1.4048332,3.3396924 0 0 1 1.3856,-3.36978 1.4048332,3.3396924 0 0 1 1.42378,3.27859 l -1.4046,0.0608 z"
       transform="scale(1,-1)" />
  </g>
</svg>
