<?xml version="1.0" encoding="UTF-8" standalone="no"?>
<!-- Created with Inkscape (http://www.inkscape.org/) -->

<svg
   version="1.1"
   id="svg9"
   width="860"
   height="1570"
   viewBox="0 0 860 1570"
   sodipodi:docname="sonic inkscape.svg"
   inkscape:version="1.2.1 (9c6d41e410, 2022-07-14)"
   xmlns:inkscape="http://www.inkscape.org/namespaces/inkscape"
   xmlns:sodipodi="http://sodipodi.sourceforge.net/DTD/sodipodi-0.dtd"
   xmlns="http://www.w3.org/2000/svg"
   xmlns:svg="http://www.w3.org/2000/svg">
  <defs
     id="defs13" />
  <sodipodi:namedview
     id="namedview11"
     pagecolor="#ffffff"
     bordercolor="#000000"
     borderopacity="0.25"
     inkscape:showpageshadow="2"
     inkscape:pageopacity="0.0"
     inkscape:pagecheckerboard="0"
     inkscape:deskcolor="#d1d1d1"
     showgrid="false"
     inkscape:zoom="1.0369427"
     inkscape:cx="251.70147"
     inkscape:cy="478.32924"
     inkscape:window-width="1920"
     inkscape:window-height="1017"
     inkscape:window-x="-8"
     inkscape:window-y="-8"
     inkscape:window-maximized="1"
     inkscape:current-layer="g15" />
  <g
     inkscape:groupmode="layer"
     inkscape:label="Image"
     id="g15">
    <path
       style="fill:#0355e0;stroke:none;stroke-width:2.5;stroke-dasharray:none;stroke-opacity:1;fill-opacity:1"
       d="m 443.61179,613.34152 c 43.18833,14.06816 82.79472,46.6782 101.63781,58.32073 12.30967,7.60574 13.76833,12.68913 19.27486,13.88033 8.17242,1.7679 -3.69027,-1.15073 1.92592,3.94109 22.82879,20.69732 52.69909,40.24435 44.3327,43.59555 -4.42719,1.77334 3.10486,5.93312 5.65504,8.18794 25.6395,22.67003 6.73556,6.41078 16.51238,15.41968 13.26676,12.22474 5.46472,7.0969 5.46472,7.0969 l 23.51342,-62.62797 c 0,0 6.48099,-27.43651 8.51602,-41.15477 2.02111,-13.62442 3.65239,-40.87328 3.65239,-40.87328 0,0 -0.58133,-22.04738 -3.46641,-32.58108 -4.25436,-15.53308 -20.08307,-43.94379 -20.08307,-43.94379 l -17.91858,-28.59184 -7.85753,-9.36859 -17.69837,-23.4201 c 0,0 -5.75248,-7.88289 -7.48881,-12.38351 -2.25852,-5.85416 -3.60149,-18.47644 -3.60149,-18.47644 l -0.96437,-5.30405 c 0,0 86.17643,14.18509 128.26167,25.55589 21.00182,5.67438 61.7199,21.21621 61.7199,21.21621 l 3.85749,-49.18304 -8.07412,-53.24945 -15.07084,-28.7223 -26.03808,-51.11178 -32.85149,-31.7378 -37.54777,-19.374 -51.1118,-22.18059 c 0,0 2.86428,-18.83455 0.96438,-27.96683 -2.48427,-11.94115 -15.74084,-33.03166 -15.74084,-33.03166 0,0 -19.81357,-23.35715 -32.47784,-31.58136 -15.97011,-10.37104 -53.04054,-19.28747 -53.04054,-19.28747 l -64.61302,-2.89312 c 0,0 -37.16841,1.0339 -54.96928,5.78624 -23.77714,6.34783 -67.50615,29.89558 -67.50615,29.89558 l -63.64865,44.36117 -77.14987,-27.00245 -36.6462,-5.78624 c 0,0 -16.8396,3.08303 -16.39434,8.67936 0.70634,8.87787 3.05927,6.12512 3.85749,12.53685 3.02223,24.27607 24.98488,69.00657 24.98488,69.00657 l 21.30505,39.00326 -20.25185,16.39435 c 0,0 -7.96434,15.63233 -8.16378,24.11711 -0.25928,11.03032 5.27067,35.67404 5.27067,35.67404 l 11.91561,44.89613 13.15809,40.93311 18.79866,36.24384 10.45261,10.17699 c 0,0 8.21362,5.08075 12.8402,6.11329 5.42867,1.21156 16.68644,-0.0866 16.68644,-0.0866 l 13.5501,-5.19317 c 0,0 11.48968,-6.11303 16.06745,-10.61213 5.00252,-4.91656 8.35396,-11.30261 11.89938,-17.3547 15.04213,-25.67716 22.31621,-55.77477 39.53931,-80.043 5.00299,-7.04947 18.15676,-18.51637 18.15676,-18.51637 l 23.99322,-14.43778 c 5.12745,-3.08542 10.06205,-2.93003 15.3298,-3.88669 12.39216,-2.25051 24.23759,-3.57714 31.6905,3.20478 l 16.85952,15.34164 c 0,0 7.98671,15.59796 9.69502,24.08067 2.30526,11.44694 0.51516,35.02648 0.51516,35.02648 0,0 -5.33923,32.88531 -12.08764,47.90964 -7.96392,17.73046 -37.61057,51.11179 -37.61057,51.11179 l 27.00246,4.82186 c 0,0 5.94454,4.87935 7.71499,9.64373 3.12324,8.40477 -1.92875,25.07372 -1.92875,25.07372 l -28.9312,31.82433 z"
       id="path231"
       sodipodi:nodetypes="cssssssccscsccccsccsccccccccscsccsccccsscccscccccsccssscssscscsccsccc" />
    <path
       style="fill:#fad599;fill-opacity:1;stroke:none;stroke-width:2.5;stroke-dasharray:none;stroke-opacity:1"
       d="m 166.83661,392.01781 c 0.96437,31.34214 6.26843,63.64865 6.26843,63.64865 l 12.05467,44.36118 5.30405,13.50123 c 0,0 -8.76758,-0.35649 -11.57248,2.41093 -2.8973,2.85859 -1.71419,7.82787 -2.65091,11.91914 -1.16916,5.10649 2.16872,15.56551 2.16872,15.56551 0,0 1.74508,-2.38324 2.73443,-5.67256 0.6091,-2.02506 0.0849,-5.02873 1.20786,-6.1432 1.65843,-1.64581 4.34174,-1.92735 6.66582,-2.16766 5.01581,-0.51864 15.03897,1.63565 15.03897,1.63565 l 6.65944,5.11496 12.67231,4.40044 14.57123,2.83236 c 5.25175,1.02084 3.99849,11.01811 -2.65202,13.98342 l -14.52012,4.82561 -14.89328,-0.48593 -13.93669,-3.17645 c 0,0 -3.37508,-1.8711 -5.36398,-5.58582 -2.49213,-4.65462 -4.65597,-7.1405 -7.2196,-9.56082 -2.32938,-2.19916 2.45003,9.29292 2.45003,9.29292 l 12.65229,11.47276 4.18515,5.75459 c 0,0 15.98598,16.61549 25.23909,23.39635 11.13592,8.16061 23.18337,15.34712 35.99863,20.48264 19.06957,7.64185 39.29305,13.57879 59.79115,14.94779 18.71957,1.25022 55.93366,-6.26843 55.93366,-6.26843 l 22.66278,-13.50123 27.00246,-25.5559 3.85749,-13.98341 c 0,0 3.33031,-17.06754 -1.44656,-23.14496 -3.01593,-3.83705 -13.98341,-4.33968 -13.98341,-4.33968 l -22.66278,-0.96438 -65.5774,10.60811 c 0,0 -24.35938,-1.89209 -36.38796,-6.32692 -8.40868,-3.1002 -15.9194,-10.45178 -24.36756,-13.44273 -9.45353,-3.34689 -29.89558,-3.37531 -29.89558,-3.37531 0,0 -12.10219,5.17447 -18.32309,4.33968 -3.99208,-0.5357 -10.60812,-5.78624 -10.60812,-5.78624 l -9.16154,-13.98342 -9.16155,-27.96683 -13.98342,-73.77457 z"
       id="path1006"
       sodipodi:nodetypes="ccccsscssscccsccccsscccsssccccscccsscsccccc" />
    <path
       style="fill:#fad599;stroke:none;stroke-width:2.5;stroke-dasharray:none;stroke-opacity:1;fill-opacity:1"
       d="m 409.37654,257.96991 c 0,0 2.55333,-10.416 5.1004,-15.06615 3.40177,-6.21056 13.28808,-16.57453 13.28808,-16.57453 0,0 11.7103,-14.1257 18.64549,-20.06364 16.08913,-13.77559 52.65276,-35.57148 52.65276,-35.57148 0,0 6.78813,16.56732 8.78146,25.25393 3.7139,16.18456 5.78966,49.47805 5.78966,49.47805 l -0.39944,34.21178 -0.0706,13.21003 c 0,0 -2.62433,7.15227 -5.42169,9.48318 -2.23865,1.86537 -8.2474,2.89841 -8.2474,2.89841 l -10.07569,-0.96966 c -26.0321,-7.07823 -48.81403,-17.88883 -67.50435,-32.30884 -5.08074,-3.9199 -12.4482,-7.96401 -12.53865,-13.98108 z"
       id="path1734"
       sodipodi:nodetypes="cscscscccsccscc" />
    <path
       style="fill:#32a41c;stroke:none;stroke-width:2.40517;stroke-dasharray:none;stroke-opacity:1;fill-opacity:1"
       d="m 340.33402,478.92296 c 0.14595,-5.47389 2.91457,-16.1669 2.91457,-16.1669 0,0 1.92525,-7.72861 4.30328,-10.78099 1.79297,-2.3014 4.17086,-5.16294 7.08811,-5.13415 3.29798,0.0326 5.74893,3.45855 7.89705,5.96121 1.97022,2.29538 4.30645,7.98809 4.30645,7.98809 0,0 3.85391,13.43449 4.53026,20.35131 0.82766,8.46424 0.38705,17.061 -0.61447,25.50643 -0.68998,5.81827 -1.57147,11.72426 -3.69827,17.18366 -1.01592,2.60782 -2.09296,5.45879 -4.25159,7.24013 -1.3655,1.12684 -3.24375,1.9291 -5.00712,1.77142 -2.7759,-0.24823 -5.3242,-2.14015 -7.26239,-4.14282 -2.57374,-2.65936 -4.07019,-6.28898 -5.18283,-9.81862 -4.03596,-12.80336 -5.38086,-26.53912 -5.02305,-39.95877 z"
       id="path1736"
       sodipodi:nodetypes="scssscssssssss" />
    <path
       style="fill:#000000;stroke:none;stroke-width:2.5;stroke-dasharray:none;stroke-opacity:1;fill-opacity:1"
       d="m 346.93335,486.28532 c 0.0263,-4.2438 0.7454,-8.46096 1.3913,-12.65541 0.40315,-2.61807 0.42266,-5.39661 1.54824,-7.7945 1.0193,-2.17147 2.13902,-5.45949 4.53436,-5.58817 2.92376,-0.15707 4.66206,3.71819 6.23356,6.18871 2.04273,3.21133 3.85155,10.74867 3.85155,10.74867 l 1.00518,11.75273 -2.20005,16.75047 c 0,0 -0.56187,12.39384 -5.27384,13.62729 -2.6571,0.69555 -4.78135,-2.99248 -6.35764,-5.24176 -1.59607,-2.2775 -2.79196,-7.86224 -2.79196,-7.86224 0,0 -1.9821,-13.25256 -1.9407,-19.92579 z"
       id="path1738"
       sodipodi:nodetypes="ssssscccsscs" />
    <ellipse
       style="fill:#ffffff;stroke:none;stroke-width:2.7691;stroke-dasharray:none;stroke-opacity:1;fill-opacity:1"
       id="path1792"
       cx="362.72495"
       cy="470.97589"
       rx="5.5311451"
       ry="9.1475449" />
    <path
       style="fill:#32a41c;fill-opacity:1;stroke:none;stroke-width:2.5;stroke-dasharray:none;stroke-opacity:1"
       d="m 223.73464,510.63575 c 1.42019,2.76563 2.25085,5.24567 2.91955,7.35061 0.55873,1.75878 1.00438,3.2557 1.58637,4.43856 3.2148,6.53393 4.17345,6.05174 4.17345,6.05174 0,0 2.76704,-0.26374 3.63616,-1.1982 0.61378,-0.65994 0.65814,-2.62242 0.65814,-2.62242 0,0 1.09008,-3.05482 1.33331,-4.64827 0.33809,-2.21497 0.15863,-6.71999 0.15863,-6.71999 0,0 -5.01303,0.31435 -7.53417,-0.18082 -2.32079,-0.45583 -6.93144,-2.47121 -6.93144,-2.47121 z"
       id="path3713"
       sodipodi:nodetypes="csscscscsc" />
    <path
       style="fill:none;fill-opacity:0;stroke:#000000;stroke-width:2.31844;stroke-dasharray:none;stroke-opacity:1"
       d="m 229.75473,513.59257 c 2.1113,3.40953 2.17644,3.79269 2.70426,3.3665 0.52783,-0.42619 1.2316,-2.55715 1.2316,-2.55715 l -3.16695,-0.71032 z"
       id="path3717"
       sodipodi:nodetypes="csccc" />
    <path
       style="fill:#000000;fill-opacity:1;stroke:none;stroke-width:2.5;stroke-dasharray:none;stroke-opacity:1"
       d="m 179.00269,543.14531 c -0.52653,-4.17205 4.09149,-11.93351 4.09149,-11.93351 l 4.29616,-3.13652 8.10015,0.88327 c 0,0 6.93041,0.85019 9.37275,1.95719 1.72219,0.7806 1.78518,2.79791 3.12084,3.70563 7.05998,4.798 24.28423,8.12733 24.28423,8.12733 0,0 4.91196,-1.24688 6.74098,0.0585 1.66715,1.18985 2.04767,5.79339 2.04767,5.79339 0,0 -0.3376,6.45317 -5.80013,10.05768 -5.11887,3.37775 -15.36138,3.92158 -16.02115,3.92158 -0.79388,0 -13.68438,-0.83682 -22.60993,-2.96112 -6.40801,-1.52513 -9.78104,-4.53995 -9.78104,-4.53995 0,0 -7.24603,-7.21112 -7.84202,-11.93351 z"
       id="path3773"
       sodipodi:nodetypes="scccsscscssscss" />
    <ellipse
       style="fill:#ffffff;fill-opacity:1;stroke:none;stroke-width:2.5;stroke-dasharray:none;stroke-opacity:1"
       id="path3937"
       cx="198.26678"
       cy="542.12244"
       rx="11.081119"
       ry="5.4553204" />
    <path
       style="fill:#000000;fill-opacity:1;stroke:none;stroke-width:2.5;stroke-dasharray:none;stroke-opacity:1"
       d="M 305.70639,579.58845 406.00123,564.15848"
       id="path4632" />
    <path
       style="fill:none;fill-opacity:1;stroke:#000000;stroke-width:2.5;stroke-dasharray:none;stroke-opacity:1"
       d="m 295.09828,580.55283 c 0,0 42.83206,1.68543 61.77418,-0.48838 17.70937,-2.03234 48.1644,-12.04848 48.1644,-12.04848"
       id="path6347"
       inkscape:transform-center-x="1.9287469"
       inkscape:transform-center-y="-0.96437346"
       sodipodi:nodetypes="csc" />
    <path
       style="fill:none;fill-opacity:1;stroke:#000000;stroke-width:2.5;stroke-dasharray:none;stroke-opacity:1"
       d="m 395.39312,556.44349 18.3231,24.10934"
       id="path6349" />
  </g>
</svg>
